<?xml version="1.0" encoding="utf-8"?>
<!-- Generator: Adobe Illustrator 16.0.0, SVG Export Plug-In . SVG Version: 6.00 Build 0)  -->
<!DOCTYPE svg PUBLIC "-//W3C//DTD SVG 1.1//EN" "http://www.w3.org/Graphics/SVG/1.1/DTD/svg11.dtd">
<svg version="1.1" id="Layer_1" xmlns="http://www.w3.org/2000/svg" xmlns:xlink="http://www.w3.org/1999/xlink" x="0px" y="0px"
	 width="841.89px" height="265.566px" viewBox="0 0 841.89 265.566" enable-background="new 0 0 841.89 265.566"
	 xml:space="preserve">
<g>
	<path fill-rule="evenodd" clip-rule="evenodd" fill="#8CB911" d="M181.323,0c1.475,3.146,3.549,5.93,5.375,8.861
		c4.888,7.841,9.847,15.638,14.764,23.462c0.271,0.434,0.885,0.893,0.638,1.377c-0.306,0.602-1.062,0.257-1.608,0.26
		c-4.864,0.026-9.729,0.056-14.594-0.015c-1.153-0.016-1.661,0.374-2.096,1.415c-2.641,6.302-5.384,12.56-8.034,18.857
		c-0.41,0.975-0.876,1.346-1.981,1.338c-8.339-0.056-16.679-0.026-25.019-0.034c-1.933-0.001-1.938-0.021-1.244-1.743
		c2.452-6.088,4.879-12.185,7.388-18.249c0.531-1.281,0.35-1.594-1.06-1.581c-6.568,0.061-13.139,0.026-19.828,0.026
		c0.198-0.727,0.805-0.913,1.238-1.224c14.668-10.533,29.347-21.051,44.006-31.595C179.681,0.861,180.438,0.362,181.323,0
		C181.644,0,181.002,0,181.323,0z"/>
	<path fill-rule="evenodd" clip-rule="evenodd" d="M71.858,151.225c-1.049,2.988-2.106,5.974-3.144,8.967
		c-11.68,33.674-23.362,67.347-35.005,101.034c-0.363,1.049-0.821,1.341-1.903,1.336c-10.162-0.044-20.324-0.037-30.485-0.009
		c-0.952,0.002-1.338-0.085-1.321-1.256c0.171-11.65,0.242-23.304,0.364-34.957c0.127-12.238,0.283-24.478,0.422-36.717
		c0.109-9.621,0.217-19.243,0.32-28.864c0.078-7.216,0.174-14.433,0.187-21.649c0.002-1.16,0.359-1.4,1.449-1.396
		c8.503,0.043,17.008,0.044,25.513-0.002c1.083-0.006,1.327,0.311,1.279,1.343c-0.35,7.683-0.653,15.367-0.957,23.051
		c-0.673,17.024-1.335,34.049-2.006,51.073c-0.12,3.027-0.268,6.053-0.086,9.156c0.779-2.168,1.573-4.331,2.336-6.504
		c12.354-35.19,24.71-70.379,37.03-105.581c0.396-1.13,0.879-1.545,2.118-1.536c8.396,0.062,16.794,0.064,25.191-0.001
		c1.298-0.01,1.575,0.361,1.51,1.587c-0.769,14.453-1.497,28.907-2.224,43.362c-0.97,19.297-1.932,38.596-2.893,57.894
		c-0.176,3.544-0.324,7.089-0.165,10.699c1.107-3.188,2.225-6.374,3.322-9.565c16.298-47.414,32.6-94.825,48.863-142.25
		c0.441-1.292,1.058-1.641,2.374-1.631c8.764,0.062,17.53,0.032,26.512,0.032c-0.835,2.309-1.614,4.492-2.417,6.667
		c-22.772,61.786-45.552,123.567-68.291,185.364c-0.482,1.308-1.069,1.716-2.478,1.705c-9.841-0.077-19.683-0.062-29.524-0.012
		c-1.207,0.006-1.572-0.23-1.499-1.516c0.739-12.902,1.403-25.809,2.099-38.713c0.73-13.544,1.478-27.087,2.21-40.63
		c0.546-10.13,1.08-20.26,1.621-30.39C72.074,151.285,71.966,151.256,71.858,151.225z"/>
	<path fill-rule="evenodd" clip-rule="evenodd" d="M307.438,108.748c-3.443,16.26-6.847,32.327-10.249,48.394
		c0.072,0.055,0.143,0.108,0.216,0.16c0.762-0.824,1.517-1.657,2.289-2.472c8.993-9.494,19.921-13.078,32.727-10.41
		c9.425,1.964,14.332,8.432,16.418,17.41c1.627,7.007,1.557,14.122,0.876,21.21c-1.366,14.223-4.209,28.165-8.574,41.776
		c-2.946,9.184-6.746,17.979-12.648,25.714c-5.585,7.319-12.521,12.648-21.792,14.377c-4.452,0.83-8.946,0.912-13.394,0.054
		c-7.672-1.481-12.646-6.248-15.683-13.265c-0.196-0.453-0.191-1.05-0.883-1.38c-0.786,3.748-1.6,7.42-2.302,11.112
		c-0.165,0.866-0.438,1.132-1.312,1.128c-8.45-0.03-16.9-0.047-25.35,0.013c-1.244,0.009-1.104-0.54-0.936-1.33
		c2.183-10.226,4.37-20.449,6.537-30.677c4.879-23.015,9.745-46.031,14.624-69.046c3.637-17.169,7.282-34.337,10.939-51.502
		c0.118-0.555,0.03-1.284,1.039-1.281C289.068,108.76,298.154,108.748,307.438,108.748z M283.794,226.357
		c0.19,3.827,0.148,6.56,0.882,9.215c1.047,3.788,3.39,6.3,7.339,6.922c5.625,0.885,10.442-0.71,14.272-5.045
		c2.75-3.113,4.281-6.869,5.651-10.689c4.232-11.8,6.801-24.007,8.62-36.378c0.724-4.917,1.219-9.88,0.687-14.851
		c-0.372-3.464-1.523-6.575-5.045-8.146c-4.904-2.19-11.654-0.954-15.502,2.775c-2.808,2.722-4.92,5.907-6.362,9.514
		C288.205,195.021,285.234,211.07,283.794,226.357z"/>
	<path fill-rule="evenodd" clip-rule="evenodd" d="M655.596,190.11c4.293-4.742,8.268-9.123,12.231-13.513
		c8.772-9.718,17.536-19.44,26.302-29.163c0.435-0.481,0.857-0.838,1.612-0.836c10.536,0.03,21.073,0.021,31.95,0.021
		c-1.857,1.995-3.525,3.806-5.213,5.599c-12.277,13.031-24.552,26.063-36.851,39.073c-0.719,0.76-0.806,1.398-0.472,2.392
		c7.486,22.301,14.93,44.617,22.38,66.93c0.199,0.598,0.369,1.204,0.589,1.923c-5.82,0-11.484,0-17.15,0
		c-4.76,0-9.521-0.037-14.281,0.028c-1.04,0.015-1.449-0.311-1.748-1.284c-4.577-14.872-9.195-29.733-13.805-44.595
		c-0.136-0.439-0.283-0.875-0.175-0.943c-3.199,2.979-6.272,6.109-9.633,8.893c-3.252,2.693-4.62,6.06-5.372,10.113
		c-1.657,8.915-3.736,17.751-5.577,26.633c-0.197,0.944-0.515,1.18-1.435,1.176c-8.611-0.035-17.224-0.045-25.836,0.007
		c-1.153,0.006-1.28-0.332-1.065-1.337c3.799-17.793,7.572-35.593,11.349-53.39c4.561-21.502,9.121-43.006,13.68-64.509
		c2.368-11.17,4.742-22.337,7.086-33.511c0.176-0.84,0.534-1.092,1.389-1.089c8.611,0.032,17.224,0.063,25.835-0.021
		c1.536-0.015,1.128,0.738,0.962,1.521c-1.869,8.821-3.756,17.638-5.622,26.458c-3.669,17.333-7.33,34.668-10.989,52.003
		C655.671,188.999,655.671,189.322,655.596,190.11z"/>
	<path fill-rule="evenodd" clip-rule="evenodd" d="M839.485,146.724c-4.861,5.165-9.536,10.137-14.217,15.104
		c-9.157,9.721-18.313,19.443-27.482,29.151c-0.804,0.851-1.161,1.559-0.719,2.875c7.635,22.652,15.187,45.332,22.754,68.007
		c0.05,0.147,0.084,0.3,0.172,0.612c-0.443,0.023-0.833,0.058-1.224,0.06c-10.055,0.003-20.11-0.023-30.164,0.037
		c-1.165,0.007-1.508-0.408-1.82-1.425c-4.518-14.668-9.082-29.321-13.637-43.979c-0.187-0.602-0.387-1.2-0.479-1.489
		c-3.034,2.874-5.861,6.065-9.195,8.588c-4.808,3.64-5.288,8.938-6.369,14.105c-1.607,7.677-3.256,15.345-4.846,23.026
		c-0.187,0.904-0.534,1.17-1.471,1.165c-8.61-0.043-17.221-0.047-25.831-0.001c-1.144,0.006-1.25-0.267-1.023-1.331
		c5.926-27.757,11.819-55.52,17.702-83.287c4.746-22.393,9.489-44.784,14.165-67.19c0.334-1.601,0.864-2.077,2.534-2.055
		c8.181,0.108,16.364,0.067,24.547,0.029c1.182-0.006,1.637,0.062,1.326,1.521c-5.618,26.349-11.17,52.713-16.731,79.074
		c-0.032,0.153-0.023,0.315-0.054,0.81c1.521-1.671,2.863-3.139,4.197-4.617c11.419-12.652,22.838-25.304,34.247-37.966
		c0.521-0.578,1.016-0.955,1.879-0.952c10.321,0.034,20.645,0.022,30.966,0.026C838.864,146.624,839.015,146.661,839.485,146.724z"
		/>
	<path fill-rule="evenodd" clip-rule="evenodd" d="M570.853,208.992c-9.038,0-18.075,0.003-27.113-0.009
		c-0.781-0.001-1.412-0.038-1.599,1.014c-1.018,5.776-2.58,11.462-2.879,17.355c-0.183,3.595,0.124,7.164,1.037,10.646
		c1.544,5.889,6.474,8.391,12.939,6.692c4.788-1.257,8.072-4.406,10.678-8.41c2.315-3.561,3.871-7.472,5.086-11.517
		c0.278-0.926,0.588-1.37,1.688-1.363c8.021,0.058,16.044,0.033,24.065,0.029c0.748,0,1.55-0.173,1.225,1.102
		c-2.432,9.572-6.1,18.533-12.783,26.008c-5.984,6.694-13.429,10.953-22.104,13.079c-10.09,2.475-20.259,2.822-30.244-0.192
		c-10.833-3.27-17.288-10.625-19.007-22.001c-1.215-8.042-0.438-15.989,0.786-23.924c1.725-11.188,4.082-22.233,7.597-33.017
		c2.679-8.221,6.217-16.002,11.5-22.893c7.97-10.395,18.593-16.078,31.553-17.497c7.157-0.783,14.276-0.732,21.336,0.941
		c10.555,2.503,16.674,9.02,18.463,19.766c1.575,9.461,1.009,18.851-0.521,28.221c-0.792,4.843-1.882,9.634-2.771,14.461
		c-0.225,1.213-0.718,1.555-1.983,1.545C588.82,208.958,579.836,208.992,570.853,208.992z M561.069,191.442
		c4.599,0,9.196-0.003,13.796,0.004c0.648,0.001,1.28,0.095,1.448-0.816c1.162-6.255,2.313-12.518,1.334-18.916
		c-0.655-4.287-2.948-6.597-7.208-7.47c-6.702-1.377-13.122,1.395-17.154,7.353c-3.819,5.646-5.683,11.99-6.853,18.615
		c-0.189,1.074-0.017,1.26,1.003,1.25C551.979,191.417,556.525,191.442,561.069,191.442z"/>
	<path fill-rule="evenodd" clip-rule="evenodd" d="M202.35,208.992c-8.931,0-17.863,0.042-26.792-0.045
		c-1.422-0.014-1.772,0.485-1.995,1.726c-0.919,5.092-2.253,10.108-2.664,15.292c-0.319,4.026-0.08,8.013,0.89,11.929
		c1.453,5.873,6.432,8.477,12.881,6.836c4.015-1.022,7.05-3.434,9.516-6.66c3.058-4,4.907-8.587,6.356-13.346
		c0.3-0.985,0.673-1.323,1.719-1.317c8.021,0.046,16.043,0.042,24.064,0.006c1.019-0.005,1.458,0.149,1.159,1.298
		c-2.611,10.044-6.527,19.414-13.866,27.024c-5.745,5.961-12.716,9.799-20.712,11.815c-9.753,2.458-19.561,2.711-29.333,0.253
		c-11.894-2.991-19.256-11.953-20.478-24.158c-0.868-8.671,0.234-17.167,1.641-25.661c1.971-11.911,4.647-23.651,8.977-34.954
		c3.019-7.882,7.03-15.2,12.901-21.362c6.982-7.333,15.55-11.686,25.531-13.21c8.088-1.235,16.183-1.349,24.189,0.628
		c6.679,1.649,12.313,4.886,15.582,11.242c2.103,4.09,2.876,8.579,3.317,13.108c1.108,11.362-0.652,22.472-3.028,33.523
		c-0.325,1.514-0.708,3.02-0.914,4.549c-0.158,1.176-0.621,1.523-1.828,1.514c-7.86-0.062-15.722-0.033-23.583-0.033
		C204.702,208.991,203.526,208.992,202.35,208.992z M192.634,191.442c4.169,0,8.34,0,12.509,0c2.528,0,2.586,0.01,3.011-2.4
		c0.981-5.58,1.85-11.166,1.099-16.869c-0.583-4.418-2.844-6.98-7.139-7.903c-6.901-1.482-13.519,1.5-17.583,7.734
		c-3.694,5.668-5.434,11.993-6.656,18.532c-0.22,1.176,0.547,0.899,1.126,0.9C183.545,191.447,188.09,191.442,192.634,191.442z"/>
	<path fill-rule="evenodd" clip-rule="evenodd" d="M414.541,241.763c-1.38,6.68-2.738,13.254-4.095,19.829
		c-0.102,0.495-0.245,0.892-0.881,0.937c-9.159,0.649-18.312,1.759-27.499,0.417c-1.054-0.153-2.102-0.386-3.126-0.673
		c-6.704-1.866-9.461-5.344-9.873-12.242c-0.369-6.153,0.775-12.118,2.042-18.083c4.156-19.573,8.279-39.152,12.413-58.73
		c0.353-1.669,0.573-3.379,1.081-4.999c0.421-1.343-0.142-1.35-1.167-1.341c-4.226,0.04-8.451,0.018-12.676,0.013
		c-0.261,0-0.522-0.047-0.904-0.083c0.97-4.594,1.924-9.131,2.885-13.667c0.365-1.722,0.835-3.428,1.089-5.166
		c0.158-1.078,0.563-1.395,1.636-1.379c4.117,0.061,8.238-0.02,12.355,0.054c1.078,0.02,1.426-0.316,1.641-1.343
		c2.135-10.183,4.349-20.348,6.469-30.533c0.225-1.078,0.616-1.348,1.659-1.343c8.397,0.04,16.795,0.069,25.191-0.019
		c1.631-0.017,1.754,0.464,1.449,1.859c-2.263,10.369-4.46,20.751-6.725,31.349c1.791,0,3.468,0,5.145,0
		c3.638,0,7.275,0.033,10.91-0.022c0.979-0.015,1.164,0.28,0.97,1.177c-1.306,6.049-2.601,12.101-3.841,18.164
		c-0.197,0.963-0.733,0.968-1.479,0.965c-4.76-0.02-9.521,0.029-14.28-0.037c-1.207-0.017-1.699,0.226-1.978,1.544
		c-4.273,20.312-8.639,40.604-12.947,60.909c-0.487,2.292-0.912,4.62-0.582,6.994c0.497,3.574,2.207,5.234,5.824,5.704
		c1.542,0.201,3.081,0.282,4.632,0.138C411.361,242.017,412.846,241.904,414.541,241.763z"/>
	<path fill-rule="evenodd" clip-rule="evenodd" d="M483.738,162.048c6.021-8.863,13.688-15.461,24.463-17.768
		c3.423-0.734,6.883-0.806,10.363-0.463c0.909,0.09,1.161,0.431,0.967,1.334c-1.856,8.659-3.7,17.32-5.495,25.991
		c-0.222,1.072-0.675,1.304-1.701,1.22c-4.953-0.398-9.899-0.711-14.81,0.542c-10.529,2.686-17.061,9.207-19.323,19.895
		c-4.814,22.754-9.637,45.508-14.407,68.273c-0.247,1.183-0.666,1.501-1.845,1.493c-8.45-0.053-16.898-0.047-25.348-0.006
		c-1.157,0.006-1.507-0.076-1.217-1.44c7.651-35.951,15.242-71.913,22.84-107.875c0.374-1.774,0.729-3.552,1.073-5.333
		c0.163-0.852,0.413-1.335,1.512-1.327c8.182,0.064,16.364,0.057,24.546,0.01c1.136-0.006,1.328,0.296,1.086,1.352
		c-0.985,4.315-1.9,8.646-2.831,12.975c-0.083,0.38-0.422,0.811,0.117,1.135c-0.039-0.129,0.111-0.419-0.237-0.284
		C483.573,161.864,483.656,161.956,483.738,162.048z"/>
</g>
</svg>
